Patient5_TMGait_0pt45_1_right_07_GRF.mot
version=1
nRows=58
nColumns=19
inDegrees=no
endheader
time	F1x	F1y	F1z	M1x	M1y	M1z	F2x	F2y	F2z	M2x	M2y	M2z	EC1x	EC1y	EC1z	EC2x	EC2y	EC2z
11.17	8.8698	932.5961	17.6817	-342.0619	-10.577	966.1047	11.6957	-2.9052	-0.5591	-0.74358	-2.6981	6.7218	-0.0592	0.0182	-0.0073	-0.0462	0.0165	0.9585
11.1869	6.4053	928.0351	19.7451	-341.1493	-13.4757	954.1463	7.0224	-1.3402	-0.23469	-0.27345	-1.7188	4.4371	-0.0592	0.0182	-0.0073	-0.0462	0.0165	0.9585
11.2039	4.5065	921.2459	21.446	-339.0175	-15.9449	939.9202	3.3609	-0.11874	0.01316	0.085245	-0.93405	2.6871	-0.0592	0.0182	-0.0073	-0.0462	0.0165	0.9585
11.2208	3.5929	911.8777	22.8318	-335.4159	-17.8484	923.4811	0.94708	0.6704	0.16743	0.31198	-0.40137	1.529	-0.0592	0.0182	-0.0073	-0.0462	0.0165	0.9585
11.2377	3.895	900.0862	24.1084	-330.4151	-19.2596	905.0555	-0.38912	1.0989	0.2502	0.43307	-0.097989	0.89382	-0.0592	0.0182	-0.0073	-0.0462	0.0165	0.9585
11.2546	5.4028	886.5658	25.5067	-324.3916	-20.3662	885.2551	-0.95304	1.2961	0.28298	0.4916	0.038078	0.66827	-0.0592	0.0182	-0.0073	-0.0462	0.0165	0.9585
11.2716	7.8513	872.3331	27.1323	-317.9135	-21.3427	864.9918	-1.0518	1.3843	0.28347	0.52851	0.070732	0.7148	-0.0592	0.0182	-0.0073	-0.0462	0.0165	0.9585
11.2885	10.8713	858.4434	28.8508	-311.587	-22.202	845.2628	-0.92827	1.4473	0.26368	0.57009	0.055592	0.91041	-0.0592	0.0182	-0.0073	-0.0462	0.0165	0.9585
11.3054	14.087	845.8221	30.3406	-305.9415	-22.8002	826.9735	-0.74337	1.5275	0.22729	0.62388	0.038133	1.1711	-0.0592	0.0182	-0.0073	-0.0462	0.0165	0.9585
11.3224	17.2093	835.1579	31.3317	-301.3508	-23.0052	810.7912	-0.5757	1.6082	0.18706	0.67635	0.033218	1.4228	-0.0592	0.0182	-0.0073	-0.0462	0.0165	0.9585
11.3393	20.0838	826.8065	31.798	-297.9838	-22.85	797.0269	-0.46053	1.6246	0.15413	0.6963	0.039456	1.5704	-0.0592	0.0182	-0.0073	-0.0462	0.0165	0.9585
11.3562	22.7322	820.7891	31.9234	-295.823	-22.4871	785.6388	-0.40157	1.4634	0.1297	0.63246	0.051592	1.4729	-0.0592	0.0182	-0.0073	-0.0462	0.0165	0.9585
11.3731	25.3218	816.907	31.9698	-294.7307	-22.0783	776.3675	-0.37672	0.94401	0.11165	0.41039	0.061209	0.91421	-0.0592	0.0182	-0.0073	-0.0462	0.0165	0.9585
11.3901	28.0935	814.9455	32.1537	-294.5334	-21.7139	768.948	-0.34836	-0.16342	0.089932	-0.05732	0.070071	-0.35805	-0.0592	0.0182	-0.0073	-0.0462	0.0165	0.9585
11.407	31.3335	814.7668	32.6095	-295.0685	-21.3939	763.1659	-0.26927	-2.0627	0.050861	-0.84893	0.079668	-2.5657	-0.0592	0.0182	-0.0073	-0.0462	0.0165	0.9585
11.4239	35.3572	816.339	33.4293	-296.2058	-21.0646	758.8764	-0.081928	-4.8113	-0.012811	-1.9897	0.072099	-5.7669	-0.0592	0.0182	-0.0073	-0.0462	0.0165	0.9585
11.4409	40.4459	819.6031	34.6774	-297.8071	-20.6481	755.9019	0.27926	-8.1175	-0.095966	-3.3645	0.008915	-9.6146	-0.0592	0.0182	-0.0073	-0.0462	0.0165	0.9585
11.4578	46.7606	824.3303	36.4025	-299.678	-20.0894	753.945	0.86659	-11.054	-0.16866	-4.5953	-0.16641	-13.0262	-0.0592	0.0182	-0.0073	-0.0462	0.0165	0.9585
11.4747	54.3185	830.0279	38.6603	-301.5412	-19.3858	752.4886	1.6748	-11.7142	-0.16672	-4.8979	-0.52143	-13.7805	-0.0592	0.0182	-0.0073	-0.0462	0.0165	0.9585
11.4916	63.0199	835.9276	41.4526	-303.039	-18.5296	750.7866	2.5711	-6.9214	0.021904	-2.9631	-1.1192	-8.1939	-0.0592	0.0182	-0.0073	-0.0462	0.0165	0.9585
11.5086	72.6479	840.9583	44.6377	-303.7389	-17.4316	747.8893	3.2166	7.7875	0.55643	3.0446	-1.9776	8.9162	-0.0592	0.0182	-0.0073	-0.0462	0.0165	0.9585
11.5255	82.9059	843.7312	47.9243	-303.1587	-15.9261	742.6644	2.9784	37.571	1.6185	15.2506	-3.0068	43.5429	-0.0592	0.0182	-0.0073	-0.0462	0.0165	0.9585
11.5424	93.3717	842.5216	50.866	-300.8003	-13.796	733.8279	0.85774	86.6241	3.3526	35.3995	-3.9226	100.5821	-0.0592	0.0182	-0.0073	-0.0462	0.0165	0.9585
11.5594	103.4034	835.1488	52.8052	-296.1226	-10.7876	719.8375	-4.4381	154.9262	5.7267	63.53	-4.1348	180.0286	-0.0592	0.0182	-0.0073	-0.0462	0.0165	0.9585
11.5763	112.053	818.9704	52.8985	-288.492	-6.662	698.8921	-13.7756	234.4822	8.3801	96.3665	-2.9005	272.6972	-0.0592	0.0182	-0.0073	-0.0462	0.0165	0.9585
11.5932	118.1809	791.107	50.3545	-277.1772	-1.3171	669.0375	-26.2541	308.7192	9.7719	126.8954	1.0196	359.5731	-0.0592	0.0182	-0.0073	-0.0462	0.0165	0.9585
11.6101	120.7838	749.2789	44.8891	-261.5433	4.9941	628.7372	-38.1321	360.4999	6.3904	147.6468	9.764	420.788	-0.0592	0.0182	-0.0073	-0.0462	0.0165	0.9585
11.6271	119.3963	693.0777	37.2031	-241.4167	11.4855	577.8524	-47.2017	387.5787	-2.301	157.4764	23.013	453.4912	-0.0592	0.0182	-0.0073	-0.0462	0.0165	0.9585
11.644	114.1747	624.2297	28.9019	-217.2181	16.9428	517.8276	-53.8564	399.8722	-13.6566	160.7151	38.1122	468.8687	-0.0592	0.0182	-0.0073	-0.0462	0.0165	0.9585
11.6609	105.5252	546.0095	21.3372	-189.9009	20.4775	451.2787	-58.9557	409.0769	-23.7739	162.6705	51.2373	480.0242	-0.0592	0.0182	-0.0073	-0.0462	0.0165	0.9585
11.6779	93.9621	462.5904	14.9985	-160.818	21.8857	381.4649	-62.6932	424.9936	-30.5788	167.7361	60.2259	497.678	-0.0592	0.0182	-0.0073	-0.0462	0.0165	0.9585
11.6948	80.1356	378.5967	9.7761	-131.5579	21.4508	311.9569	-64.7049	453.9052	-34.433	178.6197	65.2871	528.4818	-0.0592	0.0182	-0.0073	-0.0462	0.0165	0.9585
11.7117	64.9349	298.59	5.4665	-103.718	19.6282	246.2464	-64.7965	497.8746	-36.4517	196.1654	67.5302	574.4208	-0.0592	0.0182	-0.0073	-0.0462	0.0165	0.9585
11.7286	49.4966	226.483	2.0464	-78.6644	16.8574	187.2836	-63.1967	555.2879	-37.6202	219.6528	68.0941	633.5289	-0.0592	0.0182	-0.0073	-0.0462	0.0165	0.9585
11.7456	35.0525	164.936	-0.39919	-57.3134	13.5644	137.0284	-60.1296	622.0031	-38.7449	247.2794	67.9057	701.1936	-0.0592	0.0182	-0.0073	-0.0462	0.0165	0.9585
11.7625	22.5854	115.0823	-1.8839	-40.0426	10.1679	96.2566	-55.5171	692.2399	-40.206	276.559	67.3297	771.1164	-0.0592	0.0182	-0.0073	-0.0462	0.0165	0.9585
11.7794	12.5942	76.6192	-2.5342	-26.7306	6.9827	64.6753	-49.1083	759.6336	-41.9896	304.7654	66.2472	836.5249	-0.0592	0.0182	-0.0073	-0.0462	0.0165	0.9585
11.7964	5.1863	48.1853	-2.5106	-16.8887	4.1929	41.2063	-40.7611	818.4423	-43.9719	329.4039	64.4807	891.5394	-0.0592	0.0182	-0.0073	-0.0462	0.0165	0.9585
11.8133	0.31867	27.9842	-2.0202	-9.884	1.957	24.4518	-30.6705	864.4539	-46.2948	348.5803	62.2781	932.149	-0.0592	0.0182	-0.0073	-0.0462	0.0165	0.9585
11.8302	-2.1049	14.2822	-1.3304	-5.1175	0.45909	13.0395	-19.7129	895.5189	-49.396	361.2599	60.4663	956.6959	-0.0592	0.0182	-0.0073	-0.0462	0.0165	0.9585
11.8471	-2.5322	5.7501	-0.70908	-2.1372	-0.24387	5.896	-9.6331	911.5998	-53.4075	367.3668	59.9078	965.8319	-0.0592	0.0182	-0.0073	-0.0462	0.0165	0.9585
11.8641	-1.9109	1.3222	-0.29208	-0.58049	-0.37952	2.1698	-2.3732	914.2572	-57.7731	367.6201	60.8407	961.7841	-0.0592	0.0182	-0.0073	-0.0462	0.0165	0.9585
11.881	-0.95569	-0.27791	-0.046523	-0.012103	-0.24238	0.8448	1.238	905.9528	-61.6267	363.202	62.7374	947.4073	-0.0592	0.0182	-0.0073	-0.0462	0.0165	0.9585
11.8979	-0.055147	-0.23656	0.063517	-0.018973	-0.0053591	0.9305	2.0001	889.8654	-64.3418	355.5808	64.6513	925.9059	-0.0592	0.0182	-0.0073	-0.0462	0.0165	0.9585
11.9149	0.62485	0.54331	0.081918	-0.28312	0.23639	1.6428	1.5874	869.6499	-65.8789	346.3456	65.8642	900.7294	-0.0592	0.0182	-0.0073	-0.0462	0.0165	0.9585
11.9318	1.0728	1.4456	0.069817	-0.58774	0.42135	2.4248	1.5285	848.9191	-66.6193	337.0041	66.1339	875.254	-0.0592	0.0182	-0.0073	-0.0462	0.0165	0.9585
11.9487	1.3546	2.0746	0.06752	-0.79403	0.53212	2.9061	2.7689	830.8202	-66.8944	328.8553	65.4155	852.4232	-0.0592	0.0182	-0.0073	-0.0462	0.0165	0.9585
11.9656	1.5303	2.1655	0.11069	-0.80557	0.54956	2.8248	5.6883	817.6775	-66.7889	322.8637	63.6577	834.3673	-0.0592	0.0182	-0.0073	-0.0462	0.0165	0.9585
11.9826	1.6366	1.5082	0.23056	-0.53569	0.44604	1.9316	10.1802	810.7318	-66.3256	319.5385	60.9446	822.1853	-0.0592	0.0182	-0.0073	-0.0462	0.0165	0.9585
11.9995	1.6967	-0.05744	0.42845	0.082863	0.21358	0.0064816	15.7761	810.0894	-65.6007	318.8999	57.5732	815.9326	-0.0592	0.0182	-0.0073	-0.0462	0.0165	0.9585
12.0164	1.6777	-2.5774	0.7011	1.0642	-0.1591	-3.0253	21.8028	814.8214	-64.7634	320.5231	53.9729	814.7389	-0.0592	0.0182	-0.0073	-0.0462	0.0165	0.9585
12.0334	1.477	-5.7854	0.99122	2.2985	-0.63874	-6.8625	27.561	823.2219	-63.9714	323.6516	50.5948	817.0517	-0.0592	0.0182	-0.0073	-0.0462	0.0165	0.9585
12.0503	0.97256	-8.8683	1.148	3.4618	-1.0784	-10.564	32.5048	833.2582	-63.3308	327.3931	47.7724	821.0416	-0.0592	0.0182	-0.0073	-0.0462	0.0165	0.9585
12.0672	0.055672	-10.1421	0.91589	3.8941	-1.1899	-12.1573	36.3112	842.8887	-62.8462	330.8665	45.6318	824.888	-0.0592	0.0182	-0.0073	-0.0462	0.0165	0.9585
12.0841	-1.3495	-6.7177	-0.089079	2.4752	-0.51111	-8.2203	38.8643	850.0895	-62.4555	333.2266	44.1416	826.7801	-0.0592	0.0182	-0.0073	-0.0462	0.0165	0.9585
12.1011	-3.1905	5.5709	-2.3416	-2.4043	1.5903	6.2123	40.1424	852.8277	-62.043	333.6593	43.1846	824.8706	-0.0592	0.0182	-0.0073	-0.0462	0.0165	0.9585
12.118	-5.11	31.7434	-6.2734	-12.6614	5.8191	37.1283	40.123	848.9856	-61.4298	331.3512	42.5854	817.2292	-0.0592	0.0182	-0.0073	-0.0462	0.0165	0.9585
12.1349	-6.2619	76.2447	-12.0224	-29.9612	12.714	89.8595	38.6815	836.34	-60.3935	325.4788	42.1716	801.8664	-0.0592	0.0182	-0.0073	-0.0462	0.0165	0.9585
